<?xml version="1.0" encoding="utf-8"?><!DOCTYPE svg PUBLIC "-//W3C//DTD SVG 1.1//EN" "http://www.w3.org/Graphics/SVG/1.1/DTD/svg11.dtd"><svg xmlns="http://www.w3.org/2000/svg" xmlns:xlink="http://www.w3.org/1999/xlink"><symbol viewBox="0 0 48 48" id="enveloppe"><path d="M5.4 13.6c1.1.6 16 8.6 16.6 8.9s1.3.4 2 .4 1.4-.1 2-.4 15.5-8.3 16.6-8.9c1.1-.6 2.1-2.8.1-2.8H5.3c-2 0-1 2.2.1 2.8zM43 18.5c-1.2.6-16.3 8.5-17 8.8-.8.4-1.3.4-2 .4s-1.2 0-2-.4c-.8-.3-15.8-8.2-17-8.8-.9-.5-.9.1-.9.5v16.1c0 .9 1.2 2.2 2.2 2.2h35.3c1 0 2.2-1.3 2.2-2.2V19c.1-.5.1-1-.8-.5z"/></symbol><symbol viewBox="0 0 20 20" id="facebook-simple-r"><path d="M5.9 11V8.5h2v-2c0-2.2 1.2-3.7 3.8-3.7h1.8v2.6h-1.2c-1 0-1.4.7-1.4 1.4v1.7h2.6l-.6 2.5h-2v7h-3v-7h-2z"/></symbol><symbol viewBox="0 0 129 129" id="heart"><path d="M121.6 40.1c-3.3-16.6-15.1-27.3-30.3-27.3-8.5 0-17.7 3.5-26.7 10.1-9.1-6.8-18.3-10.3-26.9-10.3-15.2 0-27.1 10.8-30.3 27.6-4.8 24.9 10.6 58 55.7 76 .5.2 1 .3 1.5.3s1-.1 1.5-.3c45-18.4 60.3-51.4 55.5-76.1zm-57 67.9C25 91.6 11.3 63 15.4 41.7c2.4-12.7 11.2-21 22.3-21 7.5 0 15.9 3.6 24.3 10.5 1.5 1.2 3.6 1.2 5.1 0C75.5 24.5 83.8 21 91.3 21c11.1 0 19.8 8.1 22.3 20.7 4.1 21.1-9.5 49.6-49 66.3z"/></symbol><symbol viewBox="0 0 216 146" id="home"><g fill="#1A171B"><path d="M37.8 61.5l-6.5-11.2L105 7.4c2-1.2 4.5-1.2 6.5 0L187 50.1l-6.4 11.3-72.3-40.8-70.5 40.9z"/><path d="M107.5 32.9S53.8 64.5 53.8 61.5V130c0 4.5.6 5 1.4 5h40.2V98c0-2.5 2.4-4.5 5.3-4.5h17.6c3 0 5.3 2 5.3 4.5v37h39.2c.8 0 1.4-.6 1.4-1.2V62.2c0-.7-56.7-29.3-56.7-29.3z"/></g></symbol><symbol viewBox="0 0 576 576" id="speech-bubbles"><path d="M240 32c132.549 0 240 86.957 240 194.224S372.549 420.448 240 420.448c-12.729 0-25.223-.81-37.417-2.355C151.03 469.44 91.497 478.647 32 480v-12.567c32.126-15.677 58-44.231 58-76.866 0-4.553-.356-9.023-1.015-13.396C34.706 341.562 0 287.175 0 226.224 0 118.957 107.452 32 240 32zm258 435.343c0 27.973 18.156 52.449 46 65.886V544c-51.562-1.159-98.893-9.051-143.57-53.062a260.865 260.865 0 0 1-32.43 2.021c-47.734 0-91.704-12.879-126.807-34.521 72.336-.254 140.629-23.428 192.417-65.336 26.105-21.127 46.697-45.914 61.207-73.675C510.199 289.994 518 258.636 518 226.224c0-5.224-.225-10.418-.629-15.584C553.656 240.607 576 281.451 576 326.479c0 52.244-30.078 98.86-77.119 129.383a76 76 0 0 0-.881 11.481z"/></symbol><symbol viewBox="0 0 595.3 841.9" id="spot"><path d="M294.1 130.7c-113.2 0-204.9 91.7-204.9 204.9s204.9 389.1 204.9 389.1S499 448.8 499 335.6c.1-113.2-91.7-204.9-204.9-204.9zm3 314.8c-49.2 0-89.1-39.9-89.1-89.1 0-49.2 39.9-89.1 89.1-89.1s89.1 39.9 89.1 89.1c0 49.2-39.9 89.1-89.1 89.1z"/></symbol><symbol viewBox="0 0 20 20" id="twitter"><path d="M17.316 6.246c.008.162.011.326.011.488 0 4.99-3.797 10.742-10.74 10.742-2.133 0-4.116-.625-5.787-1.697a7.577 7.577 0 0 0 5.588-1.562 3.779 3.779 0 0 1-3.526-2.621 3.858 3.858 0 0 0 1.705-.065 3.779 3.779 0 0 1-3.028-3.703v-.047a3.766 3.766 0 0 0 1.71.473 3.775 3.775 0 0 1-1.168-5.041 10.716 10.716 0 0 0 7.781 3.945 3.813 3.813 0 0 1-.097-.861 3.773 3.773 0 0 1 3.774-3.773 3.77 3.77 0 0 1 2.756 1.191 7.602 7.602 0 0 0 2.397-.916 3.789 3.789 0 0 1-1.66 2.088 7.55 7.55 0 0 0 2.168-.594 7.623 7.623 0 0 1-1.884 1.953z"/></symbol><symbol viewBox="0 0 216 146" id="zoom"><path d="M172.8 123l-27.9-27.9c6.7-9.7 10.1-20.6 10.1-32.5 0-7.8-1.5-15.2-4.5-22.3-3-7.1-7.1-13.2-12.2-18.3S127.1 12.8 120 9.8c-7.1-3-14.5-4.5-22.3-4.5S82.4 6.7 75.3 9.7c-7.1 3-13.2 7.1-18.3 12.2s-9.2 11.2-12.2 18.3c-3 7.1-4.5 14.5-4.5 22.3s1.5 15.2 4.5 22.3c3 7.1 7.1 13.2 12.2 18.3 5.1 5.1 11.2 9.2 18.3 12.2 7.1 3 14.5 4.5 22.3 4.5 12 0 22.8-3.4 32.5-10.1l27.9 27.9c2 2.1 4.4 3.1 7.3 3.1 2.9 0 5.3-1 7.4-3.1s3.1-4.5 3.1-7.4-1-5.2-3-7.2zm-49.4-34.6c-7.1 7.1-15.7 10.7-25.8 10.7-10 0-18.6-3.6-25.8-10.7-7.1-7.1-10.7-15.7-10.7-25.8 0-10 3.6-18.6 10.7-25.8 7.1-7.1 15.7-10.7 25.8-10.7s18.6 3.6 25.8 10.7c7.1 7.1 10.7 15.7 10.7 25.8 0 10-3.6 18.6-10.7 25.8z"/></symbol></svg>