<?xml version="1.0" encoding="utf-8"?>
<!-- Generator: Adobe Illustrator 21.0.0, SVG Export Plug-In . SVG Version: 6.00 Build 0)  -->
<svg version="1.1" baseProfile="tiny" id="Layer_1" xmlns="http://www.w3.org/2000/svg" xmlns:xlink="http://www.w3.org/1999/xlink"
	 x="0px" y="0px" viewBox="0 0 48 48" xml:space="preserve">
<g id="Monitor_1_">
</g>
<g id="Computer_1_">
</g>
<g id="Wifi_1_">
</g>
<g id="Credit_Card_1_">
</g>
<g id="Lock_1_">
</g>
<g id="Documents_1_">
</g>
<g id="Phone_1_">
</g>
<g id="Download_1_">
</g>
<g id="Upload_1_">
</g>
<g id="Cloud_1_">
</g>
<g id="Award_1_">
</g>
<g id="Clipboard_1_">
</g>
<g id="Stopwatch_1_">
</g>
<g id="Bulb_1_">
</g>
<g id="Trash_1_">
</g>
<g id="Bolt_1_">
</g>
<g id="Magnifying_Glass_1_">
</g>
<g id="Pencil_1_">
</g>
<g id="Chart_Up">
</g>
<g id="Graph_2_">
</g>
<g id="Mail_1_">
</g>
<g id="Pin_1_">
</g>
<g id="douc">
</g>
<g id="bath">
</g>
<g id="matiriax">
	<path d="M5.4,13.6c1.1,0.6,16,8.6,16.6,8.9s1.3,0.4,2,0.4s1.4-0.1,2-0.4s15.5-8.3,16.6-8.9c1.1-0.6,2.1-2.8,0.1-2.8H5.3
		C3.3,10.8,4.3,13,5.4,13.6z M43,18.5c-1.2,0.6-16.3,8.5-17,8.8c-0.8,0.4-1.3,0.4-2,0.4s-1.2,0-2-0.4C21.2,27,6.2,19.1,5,18.5
		C4.1,18,4.1,18.6,4.1,19s0,16.1,0,16.1c0,0.9,1.2,2.2,2.2,2.2h35.3c1,0,2.2-1.3,2.2-2.2c0,0,0-15.7,0-16.1
		C43.9,18.5,43.9,18,43,18.5z"/>
</g>
<g id="Layer_26" display="none">
	<g display="inline">
		<path fill="none" stroke="#4691B4" stroke-miterlimit="10" d="M42.6,28.9c-0.1-0.5-0.4-0.8-1.1-0.8c-4,0-30.6,0-34.6,0
			c-0.6,0-1,0.3-1.1,0.8c1.4,2.7,1.8,9.5,5.5,11.8c-0.2,0.2-0.8,1.1-1,2c-2.6-0.7-3.8,3,0.2,3c2.9,0,2.6-4.4,4.2-4.4
			c0.7,0,18,0,18.7,0c1.6,0,1.3,4.4,4.2,4.4c4.1,0,2.8-3.7,0.2-3c-0.1-0.9-0.8-1.8-1-2C40.7,38.4,41.2,31.6,42.6,28.9z"/>
		<path fill="none" stroke="#4691B4" stroke-miterlimit="10" d="M42.7,24.4H5.6c-2.2,0-3.9,1.1-4.5,2.9c-0.2,0.5,0.1,1.1,0.6,1.2
			c0.1,0,0.2,0.1,0.3,0.1c0.4,0,0.8-0.3,0.9-0.7c0.5-1.4,2-1.6,2.7-1.6h37.1c0.6,0,2.2,0.2,2.7,1.6c0.1,0.4,0.5,0.7,0.9,0.7
			c0.1,0,0.2,0,0.3-0.1c0.5-0.2,0.8-0.7,0.6-1.2C46.7,25.5,44.9,24.4,42.7,24.4z"/>
		<path fill="none" stroke="#4691B4" stroke-miterlimit="10" d="M15.5,14.4c0.1,0.1,0.3,0.1,0.5,0.1c0.2,0,0.7-0.1,0.9-0.3
			C17,14.1,17,14,17,13.8c0-0.1-0.1-0.2-0.2-0.2c-0.3-1.9-2-3.3-3.9-3.3c-2.2,0-4,1.8-4,4v4.9c-0.2,0-0.4,0.2-0.4,0.4v0.2
			c-0.4,0.2-1.1,0.6-1.1,1.1c0,0.9,1.6,1.4,2.2,1.4c0.7,0,2.2-0.5,2.2-1.4c0-0.6-0.7-1-1.1-1.1v-0.2c0-0.2-0.2-0.4-0.4-0.4v-4.9
			c0-1.4,1.1-2.6,2.6-2.6c1.2,0,2.2,0.8,2.5,2c0,0-0.1,0.1-0.1,0.2C15.4,14.2,15.4,14.3,15.5,14.4z"/>
		<path fill="none" stroke="#4691B4" stroke-width="0.8" stroke-miterlimit="10" d="M6.3,22.4c0.2,0.2,0.4,0.2,0.6,0s0.2-0.4,0-0.6
			c-0.1-0.1-0.3-0.1-0.4-0.1l-0.3-0.3c0.2-0.2,0.2-0.6,0-0.8l0.3-0.3c0.1,0,0.3,0,0.4-0.1c0.2-0.2,0.2-0.4,0-0.6s-0.4-0.2-0.6,0
			c-0.1,0.1-0.1,0.3-0.1,0.4l-0.3,0.3c-0.2-0.2-0.6-0.2-0.8,0L4.8,20c0-0.1,0-0.3-0.1-0.4c-0.2-0.2-0.4-0.2-0.6,0
			c-0.2,0.2-0.2,0.4,0,0.6c0.1,0.1,0.3,0.1,0.4,0.1l0.3,0.3c-0.2,0.2-0.2,0.6,0,0.8l-0.3,0.3c-0.1,0-0.3,0-0.4,0.1
			C4,22,4,22.3,4.2,22.4c0.2,0.2,0.4,0.2,0.6,0c0.1-0.1,0.1-0.3,0.1-0.4l0.3-0.3c0.2,0.2,0.6,0.2,0.8,0L6.2,22
			C6.2,22.2,6.2,22.3,6.3,22.4z"/>
		<path fill="none" stroke="#4691B4" stroke-width="0.8" stroke-miterlimit="10" d="M14.6,22.4c0.2,0.2,0.4,0.2,0.6,0
			c0.2-0.2,0.2-0.4,0-0.6c-0.1-0.1-0.3-0.1-0.4-0.1l-0.3-0.3c0.2-0.2,0.2-0.6,0-0.8l0.3-0.3c0.1,0,0.3,0,0.4-0.1
			c0.2-0.2,0.2-0.4,0-0.6s-0.4-0.2-0.6,0c-0.1,0.1-0.1,0.3-0.1,0.4l-0.3,0.3c-0.2-0.2-0.6-0.2-0.8,0L13.1,20c0-0.1,0-0.3-0.1-0.4
			c-0.2-0.2-0.4-0.2-0.6,0c-0.2,0.2-0.2,0.4,0,0.6c0.1,0.1,0.3,0.1,0.4,0.1l0.3,0.3c-0.2,0.2-0.2,0.6,0,0.8l-0.3,0.3
			c-0.1,0-0.3,0-0.4,0.1c-0.2,0.2-0.2,0.4,0,0.6s0.4,0.2,0.6,0c0.1-0.1,0.1-0.3,0.1-0.4l0.3-0.3c0.2,0.2,0.6,0.2,0.8,0l0.3,0.3
			C14.5,22.2,14.5,22.3,14.6,22.4z"/>
	</g>
</g>
</svg>
