<?xml version="1.0" encoding="utf-8"?>
<!-- Generator: Adobe Illustrator 17.1.0, SVG Export Plug-In . SVG Version: 6.00 Build 0)  -->
<!DOCTYPE svg PUBLIC "-//W3C//DTD SVG 1.1//EN" "http://www.w3.org/Graphics/SVG/1.1/DTD/svg11.dtd">
<svg version="1.1" xmlns="http://www.w3.org/2000/svg" xmlns:xlink="http://www.w3.org/1999/xlink" x="0px" y="0px"
	 viewBox="0 0 216 146" enable-background="new 0 0 216 146" xml:space="preserve">
<g id="Capa_1" display="none">
	<g display="inline">
		<path d="M144.5,119.9c0,2.9,1,5.3,3.1,7.4c2,2,4.5,3.1,7.4,3.1c2.9,0,5.3-1,7.4-3.1c2-2,3.1-4.5,3.1-7.4c0-2.9-1-5.3-3.1-7.4
			c-2-2-4.5-3.1-7.4-3.1c-2.9,0-5.3,1-7.4,3.1C145.5,114.6,144.5,117.1,144.5,119.9z"/>
		<path d="M174.2,27.6c-1-1-2.3-1.5-3.7-1.5H72.7c-0.1-0.4-0.2-1.1-0.4-2.1s-0.3-1.8-0.4-2.4c-0.1-0.6-0.3-1.3-0.6-2.2
			c-0.3-0.8-0.7-1.5-1.1-2c-0.4-0.5-0.9-0.9-1.6-1.3c-0.7-0.4-1.5-0.5-2.3-0.5H45.4c-1.4,0-2.6,0.5-3.7,1.5c-1,1-1.5,2.3-1.5,3.7
			s0.5,2.6,1.5,3.7c1,1,2.3,1.5,3.7,1.5H62l14.4,67.1c-0.1,0.2-0.7,1.2-1.7,3.1c-1,1.8-1.8,3.5-2.4,4.8c-0.6,1.4-0.9,2.5-0.9,3.2
			c0,1.4,0.5,2.6,1.5,3.7c1,1,2.3,1.5,3.7,1.5h5.2h73h5.2c1.4,0,2.6-0.5,3.7-1.5c1-1,1.5-2.3,1.5-3.7s-0.5-2.6-1.5-3.7
			c-1-1-2.3-1.5-3.7-1.5h-75c1.3-2.6,2-4.3,2-5.2c0-0.5-0.1-1.1-0.2-1.8s-0.3-1.4-0.5-2.2c-0.2-0.8-0.3-1.4-0.4-1.8l85.1-9.9
			c1.4-0.2,2.5-0.7,3.3-1.8s1.3-2.2,1.3-3.5V31.3C175.8,29.9,175.3,28.7,174.2,27.6z"/>
		<path d="M71.5,119.9c0,2.9,1,5.3,3.1,7.4c2,2,4.5,3.1,7.4,3.1c2.9,0,5.3-1,7.4-3.1c2-2,3.1-4.5,3.1-7.4c0-2.9-1-5.3-3.1-7.4
			c-2-2-4.5-3.1-7.4-3.1c-2.9,0-5.3,1-7.4,3.1C72.5,114.6,71.5,117.1,71.5,119.9z"/>
	</g>
</g>
<g id="Calque_2">
	<path fill="#1A171B" d="M37.8,61.5l-6.5-11.2L105,7.4c2-1.2,4.5-1.2,6.5,0l75.5,42.7l-6.4,11.3l-72.3-40.8L37.8,61.5z"/>
	<path fill="#1A171B" d="M107.5,32.9c0,0-53.7,31.6-53.7,28.6V130c0,4.5,0.6,5,1.4,5h40.2V98c0-2.5,2.4-4.5,5.3-4.5h17.6
		c3,0,5.3,2,5.3,4.5v37h39.2c0.8,0,1.4-0.6,1.4-1.2V62.2C164.2,61.5,107.5,32.9,107.5,32.9z"/>
</g>
</svg>
