<?xml version="1.0" encoding="utf-8"?>
<!-- Generator: Adobe Illustrator 17.1.0, SVG Export Plug-In . SVG Version: 6.00 Build 0)  -->
<!DOCTYPE svg PUBLIC "-//W3C//DTD SVG 1.1//EN" "http://www.w3.org/Graphics/SVG/1.1/DTD/svg11.dtd">
<svg version="1.1" id="Capa_1" xmlns="http://www.w3.org/2000/svg" xmlns:xlink="http://www.w3.org/1999/xlink" x="0px" y="0px"
	 viewBox="0 0 216 146" enable-background="new 0 0 216 146" xml:space="preserve">
<g>
	<path d="M172.8,123l-27.9-27.9c6.7-9.7,10.1-20.6,10.1-32.5c0-7.8-1.5-15.2-4.5-22.3c-3-7.1-7.1-13.2-12.2-18.3
		s-11.2-9.2-18.3-12.2c-7.1-3-14.5-4.5-22.3-4.5S82.4,6.7,75.3,9.7c-7.1,3-13.2,7.1-18.3,12.2s-9.2,11.2-12.2,18.3
		c-3,7.1-4.5,14.5-4.5,22.3s1.5,15.2,4.5,22.3c3,7.1,7.1,13.2,12.2,18.3c5.1,5.1,11.2,9.2,18.3,12.2c7.1,3,14.5,4.5,22.3,4.5
		c12,0,22.8-3.4,32.5-10.1l27.9,27.9c2,2.1,4.4,3.1,7.3,3.1c2.9,0,5.3-1,7.4-3.1s3.1-4.5,3.1-7.4S174.8,125,172.8,123z M123.4,88.4
		c-7.1,7.1-15.7,10.7-25.8,10.7c-10,0-18.6-3.6-25.8-10.7c-7.1-7.1-10.7-15.7-10.7-25.8c0-10,3.6-18.6,10.7-25.8
		c7.1-7.1,15.7-10.7,25.8-10.7s18.6,3.6,25.8,10.7c7.1,7.1,10.7,15.7,10.7,25.8C134.1,72.6,130.5,81.2,123.4,88.4z"/>
</g>
</svg>
